<?xml version="1.0"?>
<svg xmlns="http://www.w3.org/2000/svg" xmlns:xlink="http://www.w3.org/1999/xlink" version="1.1" id="Capa_1" x="0px" y="0px" width="512px" height="512px" viewBox="0 0 612 612" style="enable-background:new 0 0 612 612;" xml:space="preserve"><g><g>
	<g>
		<g>
			<path d="M599.467,281.474H343.599c-6.918,0-12.533-5.615-12.533-12.533V13.047c0-6.918,5.615-12.533,12.533-12.533     C491.585,0.514,612,120.929,612,268.94C612,275.859,606.386,281.474,599.467,281.474z M356.131,256.408h230.478     c-6.316-124.25-106.253-224.161-230.478-230.502V256.408z" data-original="#000000" class="active-path" data-old_color="#000000" fill="#F06622"/>
			<path d="M599.467,281.474H343.599c-6.918,0-12.533-5.615-12.533-12.533V13.047c0-6.918,5.615-12.533,12.533-12.533     s12.532,5.615,12.532,12.533v243.361h243.336c6.919,0,12.533,5.615,12.533,12.533C612,275.859,606.386,281.474,599.467,281.474z" data-original="#000000" class="active-path" data-old_color="#000000" fill="#F06622"/>
		</g>
		<g>
			<path d="M524.271,355.592H268.402c-6.918,0-12.533-5.614-12.533-12.532V87.215c0-6.918,5.614-12.533,12.533-12.533     c6.918,0,12.533,5.615,12.533,12.533v243.311h243.336c6.918,0,12.533,5.615,12.533,12.533S531.188,355.592,524.271,355.592z" data-original="#000000" class="active-path" data-old_color="#000000" fill="#F06622"/>
			<path d="M268.402,611.486C120.415,611.486,0,491.071,0,343.06C0,195.072,120.415,74.683,268.402,74.683     c6.918,0,12.533,5.615,12.533,12.533v243.311h243.336c6.918,0,12.533,5.615,12.533,12.533     C536.804,491.071,416.389,611.486,268.402,611.486z M255.869,100.074C127.483,106.591,25.065,213.095,25.065,343.06     c0,134.2,109.161,243.361,243.336,243.361c129.99,0,236.468-102.443,243.01-230.829h-243.01c-6.918,0-12.533-5.614-12.533-12.532     V100.074z" data-original="#000000" class="active-path" data-old_color="#000000" fill="#F06622"/>
		</g>
	</g>
</g></g> </svg>
